# This file uses centimeters as units for non-parametric coordinates.

mtllib Shade.mtl
g default
v -1.000000 -0.000001 1.995473
v -0.000000 -0.000000 1.995473
v -1.000000 0.134164 1.995473
v -0.000000 0.607168 1.995473
v -1.000000 0.134164 0.000004
v -0.000000 0.607168 0.000004
v -1.000000 -0.000001 0.000004
v -0.000000 -0.000000 0.000004
v -1.000000 0.134164 0.035456
v -0.000000 0.607168 0.035456
v -0.000000 0.520524 0.184985
v -1.000000 -0.000001 0.035456
v -1.000000 0.134164 1.964289
v -0.000000 0.607168 1.964289
v -0.000000 0.520524 1.814760
v -1.000000 -0.000001 1.964289
v -0.956746 -0.000001 1.995473
v -0.956746 -0.000001 1.964289
v -0.956746 -0.000001 0.035456
v -0.956746 -0.000001 0.000004
v -0.956746 0.154623 0.000004
v -0.956746 0.154623 0.035456
v -0.956746 0.154623 1.964289
v -0.956746 0.154623 1.995473
vt 0.049972 0.685413
vt 0.024448 0.570146
vt 0.648941 0.819805
vt 0.236504 0.998008
vt 0.705355 0.003773
vt 0.705355 0.013784
vt 0.362773 0.014018
vt 0.362773 0.004007
vt 0.448458 0.829636
vt 0.395986 0.829636
vt 0.001692 0.622978
vt 0.640743 0.573703
vt 0.014207 0.634178
vt 0.014207 0.622978
vt 0.774686 0.492062
vt 0.774686 0.500927
vt 0.705370 0.558470
vt 0.362788 0.558704
vt 0.019399 0.047397
vt 0.001694 0.013614
vt 0.014209 0.013614
vt 0.774671 0.009789
vt 0.725624 0.029160
vt 0.720858 0.567266
vt 0.242412 0.571935
vt 0.448458 0.571935
vt 0.001692 0.634178
vt 0.453044 0.575118
vt 0.402929 0.841287
vt 0.448458 0.841287
vt 0.705370 0.567276
vt 0.362788 0.567510
vt 0.645975 0.573912
vt 0.136275 0.545383
vt 0.019392 0.571265
vt 0.041539 0.671281
vt 0.774671 0.001992
vt 0.720858 0.558460
vt 0.720843 0.013774
vt 0.720843 0.003762
vt 0.725640 0.528094
vt 0.725639 0.519230
vt 0.725624 0.036957
vt 0.014209 0.003762
vt 0.847550 0.789097
vt 0.019392 0.525031
vt 0.359101 0.569040
vt 0.483159 0.837014
vt 0.482145 0.836934
vt 0.646909 0.573703
vt 0.359110 0.003762
vt 0.001694 0.003762
vn 0.000000 0.000000 1.000000
vn 0.000000 0.000000 1.000000
vn 0.000000 0.000000 1.000000
vn 0.000000 0.000000 1.000000
vn -0.427584 0.903976 0.000000
vn -0.427584 0.903976 0.000000
vn -0.427584 0.903976 0.000000
vn -0.427584 0.903976 0.000000
vn 0.000000 0.000000 -1.000000
vn 0.000000 0.000000 -1.000000
vn 0.000000 0.000000 -1.000000
vn 0.000000 0.000000 -1.000000
vn 0.034102 -0.389730 0.920297
vn 0.034102 -0.389730 0.920297
vn 0.034102 -0.389730 0.920297
vn 0.034102 -0.389730 0.920297
vn -1.000000 0.000000 -0.000001
vn -1.000000 0.000000 -0.000001
vn -1.000000 0.000000 -0.000001
vn -1.000000 0.000000 -0.000001
vn -0.427584 0.903975 0.000000
vn -0.427584 0.903975 0.000000
vn -0.427584 0.903975 0.000000
vn -0.427584 0.903975 0.000000
vn 0.477906 -0.878411 0.000000
vn 0.477906 -0.878411 0.000000
vn 0.477906 -0.878411 0.000000
vn 0.477906 -0.878411 0.000000
vn -1.000000 -0.000000 0.000000
vn -1.000000 -0.000000 0.000000
vn -1.000000 -0.000000 0.000000
vn -1.000000 -0.000000 0.000000
vn -0.427584 0.903975 0.000000
vn -0.427584 0.903975 0.000000
vn -0.427584 0.903975 0.000000
vn -0.427584 0.903975 0.000000
vn 0.030175 -0.376868 -0.925775
vn 0.030175 -0.376868 -0.925775
vn 0.030175 -0.376868 -0.925775
vn 0.030175 -0.376868 -0.925775
vn -1.000000 0.000000 0.000001
vn -1.000000 0.000000 0.000001
vn -1.000000 0.000000 0.000001
vn -1.000000 0.000000 0.000001
vn -0.000007 -1.000000 0.000010
vn -0.000007 -1.000000 0.000010
vn -0.000007 -1.000000 0.000010
vn -0.000007 -1.000000 0.000010
vn -0.000014 -1.000000 0.000000
vn -0.000014 -1.000000 0.000000
vn -0.000014 -1.000000 0.000000
vn -0.000014 -1.000000 0.000000
vn -0.000007 -1.000000 -0.000009
vn -0.000007 -1.000000 -0.000009
vn -0.000007 -1.000000 -0.000009
vn -0.000007 -1.000000 -0.000009
vn 0.000000 0.000000 -1.000000
vn 0.000000 0.000000 -1.000000
vn 0.000000 0.000000 -1.000000
vn 0.000000 0.000000 -1.000000
vn -0.427582 0.903976 -0.000000
vn -0.427583 0.903976 -0.000000
vn -0.427583 0.903976 -0.000000
vn -0.427583 0.903976 -0.000000
vn -0.427581 0.903977 0.000000
vn -0.427581 0.903977 0.000000
vn -0.427581 0.903977 0.000000
vn -0.427581 0.903977 0.000000
vn -0.427582 0.903977 0.000000
vn -0.427582 0.903977 0.000000
vn -0.427582 0.903977 0.000000
vn -0.427582 0.903977 0.000000
vn -0.000001 0.000000 1.000000
vn -0.000001 0.000000 1.000000
vn -0.000001 0.000000 1.000000
vn -0.000001 0.000000 1.000000
s off
g Building2:pCube103
usemtl initialShadingGroup
f 24/1/1 17/2/2 2/34/3 4/4/4
f 21/5/5 22/6/6 10/7/7 6/8/8
f 20/9/9 21/10/10 6/25/11 8/26/12
f 19/48/13 20/49/14 8/28/15 11/12/16
f 7/41/17 12/42/18 9/15/19 5/16/20
f 22/6/21 23/17/22 14/18/23 10/7/24
f 18/51/25 19/47/26 11/46/27 15/19/28
f 9/15/29 12/42/30 16/43/31 13/22/32
f 23/17/33 24/31/34 4/32/35 14/18/36
f 17/33/37 18/50/38 15/45/39 2/3/40
f 13/22/41 16/43/42 1/23/43 3/37/44
f 16/21/45 18/20/46 17/52/47 1/44/48
f 12/14/49 19/11/50 18/20/51 16/21/52
f 7/13/53 20/27/54 19/11/55 12/14/56
f 5/29/57 21/10/58 20/9/59 7/30/60
f 9/39/61 22/6/62 21/5/63 5/40/64
f 13/38/65 23/17/66 22/6/67 9/39/68
f 3/24/69 24/31/70 23/17/71 13/38/72
f 1/35/73 17/2/74 24/1/75 3/36/76
