# This file uses centimeters as units for non-parametric coordinates.

mtllib Pillar2.mtl
g default
v -0.000000 0.487608 0.643129
v 0.643129 0.487608 0.643129
v 0.071565 3.491557 0.571565
v 0.571565 3.491557 0.571565
v 0.071565 3.491557 0.071565
v 0.571565 3.491557 0.071565
v -0.000000 0.487608 -0.000000
v 0.643129 0.487608 -0.000000
v 0.071565 0.611310 0.571565
v 0.571565 0.611310 0.571565
v 0.571565 0.611310 0.071565
v 0.071565 0.611310 0.071565
v -0.000000 0.000000 -0.000000
v 0.643129 0.000000 -0.000000
v 0.643129 0.000000 0.643129
v -0.000000 0.000000 0.643129
v 0.003594 3.537160 0.639536
v 0.639536 3.537160 0.639536
v 0.639536 3.537160 0.003593
v 0.003594 3.537160 0.003593
v -0.039103 3.787830 0.682233
v 0.682233 3.787830 0.682233
v 0.682233 3.787830 -0.039103
v -0.039103 3.787830 -0.039103
v -0.073187 3.850900 0.716316
v 0.716317 3.850900 0.716316
v 0.716317 3.850900 -0.073187
v -0.073187 3.850900 -0.073187
v -0.018584 4.011433 0.661713
v 0.661714 4.011433 0.661713
v 0.661714 4.011433 -0.018584
v -0.018584 4.011433 -0.018584
vt 0.316060 0.609025
vt 0.176085 0.843303
vt 0.562754 0.447219
vt 0.894620 0.338598
vt 0.831056 0.003844
vt 0.815391 0.665111
vt 0.694582 0.433251
vt 0.274476 0.867001
vt 0.461208 0.696129
vt 0.935188 0.392193
vt 0.627055 0.674983
vt 0.344810 0.841437
vt 0.550451 0.737306
vt 0.406058 0.868813
vt 0.928297 0.733602
vt 0.001869 0.998007
vt 0.831645 0.733604
vt 0.113231 0.998008
vt 0.294696 0.868811
vt 0.453799 0.737307
vt 0.058778 0.632723
vt 0.646425 0.914458
vt 0.566872 0.921872
vt 0.770575 0.894331
vt 0.890518 0.020296
vt 0.864600 0.394152
vt 0.457100 0.427512
vt 0.835350 0.368441
vt 0.755794 0.683832
vt 0.634690 0.703432
vt 0.750158 0.413175
vt 0.214873 0.885720
vt 0.211257 0.006282
vt 0.106563 0.007501
vt 0.315951 0.005063
vt 0.420645 0.003844
vt 0.835350 0.379836
vt 0.860810 0.384892
vt 0.427887 0.413175
vt 0.865062 0.003844
vt 0.703385 0.928404
vt 0.827483 0.908287
vt 0.623846 0.935812
vt 0.001869 0.618767
vt 0.935039 0.378888
vt 0.508980 0.730217
vt 0.894620 0.352053
vt 0.514921 0.413175
vt 0.690183 0.683323
vt 0.427869 0.003917
vt 0.427942 0.407105
vt 0.831131 0.407033
vt 0.001978 0.612681
vt 0.351930 0.643419
vt 0.106672 0.611462
vt 0.211366 0.610243
vt 0.111238 0.616915
vt 0.417049 0.869792
vt 0.570485 0.413176
vt 0.279695 0.615063
vt 0.427869 0.745255
vt 0.750201 0.703432
vt 0.694620 0.683359
vt 0.623741 0.700263
vt 0.457085 0.730919
vt 0.895952 0.728947
vt 0.566781 0.714208
vt 0.001869 0.008719
vt 0.936234 0.688521
vt 0.279905 0.869793
vt 0.550485 0.879765
vt 0.453833 0.879765
vt 0.626676 0.445927
vt 0.420754 0.607806
vt 0.864985 0.384891
vt 0.755705 0.413176
vt 0.815315 0.431892
vt 0.836258 0.711923
vt 0.633460 0.413176
vt 0.689123 0.433215
vt 0.860812 0.003844
vt 0.214869 0.615063
vt 0.274473 0.633782
vt 0.001949 0.854574
vt 0.890448 0.368443
vt 0.703506 0.692854
vt 0.865433 0.697566
vt 0.827423 0.672480
vt 0.835352 0.020294
vt 0.515445 0.732068
vt 0.058848 0.840615
vt 0.935096 0.001992
vt 0.646532 0.706793
vt 0.509032 0.411323
vt 0.770523 0.686439
vt 0.563166 0.697943
vt 0.894665 0.042269
vt 0.461249 0.445403
vt 0.416835 0.615063
vt 0.405876 0.992452
vt 0.294513 0.992450
vt 0.111147 0.871643
vt 0.928515 0.876060
vt 0.831864 0.876063
vt 0.570973 0.707801
vt 0.001956 0.874368
vt 0.113319 0.874369
vt 0.176156 0.645265
vt 0.352097 0.841458
vt 0.344648 0.643397
vn 0.000000 0.000000 1.000000
vn 0.000000 0.000000 1.000000
vn 0.000000 0.000000 1.000000
vn 0.000000 0.000000 1.000000
vn 0.000000 1.000000 0.000000
vn 0.000000 1.000000 0.000000
vn 0.000000 1.000000 0.000000
vn 0.000000 1.000000 0.000000
vn 0.000000 0.000000 -1.000000
vn 0.000000 0.000000 -1.000000
vn 0.000000 0.000000 -1.000000
vn 0.000000 0.000000 -1.000000
vn 1.000000 0.000000 0.000000
vn 1.000000 0.000000 0.000000
vn 1.000000 0.000000 0.000000
vn 1.000000 0.000000 0.000000
vn -1.000000 0.000000 0.000000
vn -1.000000 0.000000 0.000000
vn -1.000000 0.000000 0.000000
vn -1.000000 0.000000 0.000000
vn 0.000000 0.500762 0.865585
vn 0.000000 0.500762 0.865585
vn 0.000000 0.500762 0.865585
vn 0.000000 0.500762 0.865585
vn 0.865585 0.500762 0.000000
vn 0.865585 0.500762 0.000000
vn 0.865585 0.500762 0.000000
vn 0.865585 0.500762 0.000000
vn 0.000000 0.500762 -0.865585
vn 0.000000 0.500762 -0.865585
vn 0.000000 0.500762 -0.865585
vn 0.000000 0.500762 -0.865585
vn -0.865585 0.500762 0.000000
vn -0.865585 0.500762 0.000000
vn -0.865585 0.500762 0.000000
vn -0.865585 0.500762 0.000000
vn 0.000000 0.000000 -1.000000
vn 0.000000 0.000000 -1.000000
vn 0.000000 0.000000 -1.000000
vn 0.000000 0.000000 -1.000000
vn 1.000000 0.000000 0.000000
vn 1.000000 0.000000 0.000000
vn 1.000000 0.000000 0.000000
vn 1.000000 0.000000 0.000000
vn 0.000000 0.000000 1.000000
vn 0.000000 0.000000 1.000000
vn 0.000000 0.000000 1.000000
vn 0.000000 0.000000 1.000000
vn -1.000000 0.000000 0.000000
vn -1.000000 0.000000 0.000000
vn -1.000000 0.000000 0.000000
vn -1.000000 0.000000 0.000000
vn 0.000000 -0.830415 0.557145
vn 0.000000 -0.830415 0.557145
vn 0.000000 -0.830415 0.557145
vn 0.000000 -0.830415 0.557145
vn 0.557146 -0.830414 0.000000
vn 0.557146 -0.830414 0.000000
vn 0.557146 -0.830414 0.000000
vn 0.557146 -0.830414 0.000000
vn 0.000000 -0.830415 -0.557145
vn 0.000000 -0.830415 -0.557145
vn 0.000000 -0.830415 -0.557145
vn 0.000000 -0.830415 -0.557145
vn -0.557147 -0.830414 0.000000
vn -0.557147 -0.830414 0.000000
vn -0.557147 -0.830414 0.000000
vn -0.557147 -0.830414 0.000000
vn 0.000000 -0.167913 0.985802
vn 0.000000 -0.167913 0.985802
vn 0.000000 -0.167913 0.985802
vn 0.000000 -0.167913 0.985802
vn 0.985802 -0.167913 0.000000
vn 0.985802 -0.167913 0.000000
vn 0.985802 -0.167913 0.000000
vn 0.985802 -0.167913 0.000000
vn 0.000000 -0.167910 -0.985802
vn 0.000000 -0.167910 -0.985802
vn 0.000000 -0.167910 -0.985802
vn 0.000000 -0.167910 -0.985802
vn -0.985802 -0.167913 0.000000
vn -0.985802 -0.167913 0.000000
vn -0.985802 -0.167913 0.000000
vn -0.985802 -0.167913 0.000000
vn 0.000000 -0.475423 0.879757
vn 0.000000 -0.475423 0.879757
vn 0.000000 -0.475423 0.879757
vn 0.000000 -0.475423 0.879757
vn 0.879754 -0.475430 0.000000
vn 0.879754 -0.475430 0.000000
vn 0.879754 -0.475430 0.000000
vn 0.879754 -0.475430 0.000000
vn 0.000000 -0.475433 -0.879752
vn 0.000000 -0.475433 -0.879752
vn 0.000000 -0.475433 -0.879752
vn 0.000000 -0.475433 -0.879752
vn -0.879753 -0.475431 0.000000
vn -0.879753 -0.475431 0.000000
vn -0.879753 -0.475431 0.000000
vn -0.879753 -0.475431 0.000000
vn 0.000000 0.322016 0.946734
vn 0.000000 0.322016 0.946734
vn 0.000000 0.322016 0.946734
vn 0.000000 0.322016 0.946734
vn 0.946734 0.322017 0.000000
vn 0.946734 0.322017 0.000000
vn 0.946734 0.322017 0.000000
vn 0.946734 0.322017 0.000000
vn 0.000000 0.322016 -0.946734
vn 0.000000 0.322016 -0.946734
vn 0.000000 0.322016 -0.946734
vn 0.000000 0.322016 -0.946734
vn -0.946734 0.322017 0.000000
vn -0.946734 0.322017 0.000000
vn -0.946734 0.322017 0.000000
vn -0.946734 0.322017 0.000000
s off
g pCube47
usemtl initialShadingGroup
f 9/1/1 10/56/2 4/33/3 3/35/4
f 29/5/5 30/52/6 31/51/7 32/50/8
f 5/68/9 6/34/10 11/55/11 12/53/12
f 10/56/13 11/55/14 6/34/15 4/33/16
f 12/74/17 9/1/18 3/35/19 5/36/20
f 1/99/21 2/58/22 10/109/23 9/54/24
f 2/102/25 8/57/26 11/108/27 10/2/28
f 12/73/29 11/11/30 8/105/31 7/59/32
f 7/70/33 1/60/34 9/110/35 12/12/36
f 7/16/37 8/106/38 14/107/39 13/18/40
f 8/15/41 2/103/42 15/104/43 14/17/44
f 2/14/45 1/100/46 16/101/47 15/19/48
f 1/13/49 7/71/50 13/72/51 16/20/52
f 3/4/53 4/97/54 18/92/55 17/45/56
f 4/3/57 6/96/58 19/90/59 18/48/60
f 6/10/61 5/69/62 20/66/63 19/47/64
f 5/9/65 3/98/66 17/94/67 20/46/68
f 17/22/69 18/93/70 22/86/71 21/41/72
f 18/21/73 19/91/74 23/84/75 22/44/76
f 19/23/77 20/67/78 24/64/79 23/43/80
f 20/24/81 17/95/82 21/88/83 24/42/84
f 21/26/85 22/87/86 26/78/87 25/37/88
f 22/25/89 23/85/90 27/75/91 26/40/92
f 23/27/93 24/65/94 28/61/95 27/39/96
f 24/28/97 21/89/98 25/81/99 28/38/100
f 25/30/101 26/79/102 30/80/103 29/49/104
f 26/29/105 27/76/106 31/77/107 30/6/108
f 27/31/109 28/62/110 32/63/111 31/7/112
f 28/32/113 25/82/114 29/83/115 32/8/116
