# This file uses centimeters as units for non-parametric coordinates.

mtllib Building1Pillar.mtl
g default
v -0.000000 3.997349 0.500000
v 0.500000 3.997349 0.500000
v -0.000000 3.997349 0.000000
v 0.500000 3.997349 0.000000
v -0.000000 0.000000 0.500000
v 0.500000 0.000000 0.500000
v 0.500000 0.000000 0.000000
v -0.000000 0.000000 0.000000
vt 0.640423 0.985540
vt 0.473312 0.987484
vt 0.473138 0.023451
vt 0.640249 0.021506
vt 0.138916 0.027341
vt 0.306027 0.025397
vt 0.306201 0.989430
vt 0.139090 0.991376
vt 0.807534 0.983594
vt 0.807360 0.019560
vn 0.000000 0.000000 1.000000
vn 0.000000 0.000000 1.000000
vn 0.000000 0.000000 1.000000
vn 0.000000 0.000000 1.000000
vn 0.000000 0.000000 -1.000000
vn 0.000000 0.000000 -1.000000
vn 0.000000 0.000000 -1.000000
vn 0.000000 0.000000 -1.000000
vn 1.000000 0.000000 0.000000
vn 1.000000 0.000000 0.000000
vn 1.000000 0.000000 0.000000
vn 1.000000 0.000000 0.000000
vn -1.000000 0.000000 0.000000
vn -1.000000 0.000000 0.000000
vn -1.000000 0.000000 0.000000
vn -1.000000 0.000000 0.000000
s off
g pCube75
usemtl Pillar2:initialShadingGroup
f 5/1/1 6/2/2 2/3/3 1/4/4
f 3/5/5 4/6/6 7/7/7 8/8/8
f 6/2/9 7/7/10 4/6/11 2/3/12
f 8/9/13 5/1/14 1/4/15 3/10/16
