# This file uses centimeters as units for non-parametric coordinates.

mtllib Building1BottomPillar.mtl
g default
v -0.000000 0.487608 0.643129
v 0.643129 0.487608 0.643129
v 0.071565 3.998255 0.571565
v 0.571565 3.998255 0.571565
v 0.071565 3.998255 0.071565
v 0.571565 3.998255 0.071565
v -0.000000 0.487608 0.000000
v 0.643129 0.487608 0.000000
v 0.071565 0.611310 0.571565
v 0.571565 0.611310 0.571565
v 0.571565 0.611310 0.071565
v 0.071565 0.611310 0.071565
v -0.000000 -0.000000 0.000000
v 0.643129 -0.000000 0.000000
v 0.643129 -0.000000 0.643129
v -0.000000 -0.000000 0.643129
vt 0.316060 0.609025
vt 0.211366 0.610243
vt 0.211257 0.006282
vt 0.315951 0.005063
vt 0.001869 0.008719
vt 0.106563 0.007501
vt 0.106672 0.611462
vt 0.001978 0.612681
vt 0.420754 0.607806
vt 0.420645 0.003844
vt 0.943743 0.051179
vt 0.943957 0.305908
vt 0.879005 0.277574
vt 0.878838 0.079535
vt 0.638055 0.307759
vt 0.638146 0.053031
vt 0.703064 0.081381
vt 0.702993 0.279419
vt 0.543480 0.085411
vt 0.543859 0.314467
vt 0.487777 0.347285
vt 0.487289 0.052660
vt 0.806813 0.305909
vt 0.806603 0.051179
vt 0.871556 0.079513
vt 0.871718 0.277553
vt 0.051170 0.816208
vt 0.051257 0.692569
vt 0.162620 0.692570
vt 0.162532 0.816209
vt 0.866670 0.385411
vt 0.866888 0.527869
vt 0.770237 0.527872
vt 0.770018 0.385413
vt 0.455359 0.687014
vt 0.455177 0.810653
vt 0.343814 0.810651
vt 0.343997 0.687012
vt 0.599752 0.438417
vt 0.599786 0.580876
vt 0.503134 0.580876
vt 0.503100 0.438418
vn 0.000000 0.000000 1.000000
vn 0.000000 0.000000 1.000000
vn 0.000000 0.000000 1.000000
vn 0.000000 0.000000 1.000000
vn 0.000000 0.000000 -1.000000
vn 0.000000 0.000000 -1.000000
vn 0.000000 0.000000 -1.000000
vn 0.000000 0.000000 -1.000000
vn 1.000000 0.000000 0.000000
vn 1.000000 0.000000 0.000000
vn 1.000000 0.000000 0.000000
vn 1.000000 0.000000 0.000000
vn -1.000000 0.000000 0.000000
vn -1.000000 0.000000 0.000000
vn -1.000000 0.000000 0.000000
vn -1.000000 0.000000 0.000000
vn 0.000000 0.500762 0.865585
vn 0.000000 0.500762 0.865585
vn 0.000000 0.500762 0.865585
vn 0.000000 0.500762 0.865585
vn 0.865585 0.500762 0.000000
vn 0.865585 0.500762 0.000000
vn 0.865585 0.500762 0.000000
vn 0.865585 0.500762 0.000000
vn 0.000000 0.500762 -0.865585
vn 0.000000 0.500762 -0.865585
vn 0.000000 0.500762 -0.865585
vn 0.000000 0.500762 -0.865585
vn -0.865585 0.500762 0.000000
vn -0.865585 0.500762 0.000000
vn -0.865585 0.500762 0.000000
vn -0.865585 0.500762 0.000000
vn 0.000000 0.000000 -1.000000
vn 0.000000 0.000000 -1.000000
vn 0.000000 0.000000 -1.000000
vn 0.000000 0.000000 -1.000000
vn 1.000000 0.000000 0.000000
vn 1.000000 0.000000 0.000000
vn 1.000000 0.000000 0.000000
vn 1.000000 0.000000 0.000000
vn 0.000000 0.000000 1.000000
vn 0.000000 0.000000 1.000000
vn 0.000000 0.000000 1.000000
vn 0.000000 0.000000 1.000000
vn -1.000000 0.000000 0.000000
vn -1.000000 0.000000 0.000000
vn -1.000000 0.000000 0.000000
vn -1.000000 0.000000 0.000000
s off
g pCube76
usemtl Pillar2:initialShadingGroup
f 9/1/1 10/2/2 4/3/3 3/4/4
f 5/5/5 6/6/6 11/7/7 12/8/8
f 10/2/9 11/7/10 6/6/11 4/3/12
f 12/9/13 9/1/14 3/4/15 5/10/16
f 1/11/17 2/12/18 10/13/19 9/14/20
f 2/15/21 8/16/22 11/17/23 10/18/24
f 12/19/25 11/20/26 8/21/27 7/22/28
f 7/23/29 1/24/30 9/25/31 12/26/32
f 7/27/33 8/28/34 14/29/35 13/30/36
f 8/31/37 2/32/38 15/33/39 14/34/40
f 2/35/41 1/36/42 16/37/43 15/38/44
f 1/39/45 7/40/46 13/41/47 16/42/48
